<svg xmlns="http://www.w3.org/2000/svg" viewBox="263.156 28 99.844 22.852"><defs><style>.a{fill:none;}.b{fill:#003d7b;}</style></defs><g transform="translate(263.156 28)"><rect class="a" width="99.844" height="22.852"/><g transform="translate(0 0.141)"><path class="b" d="M14.309,23.786H9.281L0,2.2H7.383l4.43,12.094L16.277,2.2h7.348Z" transform="translate(0 -1.567)"/><path class="b" d="M90.135,11.65a11.268,11.268,0,1,0-11.25,11.285A11.238,11.238,0,0,0,90.135,11.65m-6.152,0a5.117,5.117,0,0,1-5.1,5.168,5.176,5.176,0,0,1-5.168-5.168,5.117,5.117,0,0,1,5.168-5.1,5.057,5.057,0,0,1,5.1,5.1" transform="translate(-43.834 -0.4)"/><path class="b" d="M143.1,2.2h6.645V23.786H143.1Z" transform="translate(-92.791 -1.567)"/><path class="b" d="M184.715,8.6V23.786h-6.68V8.6H173.5V2.2h15.75V8.6Z" transform="translate(-112.504 -1.567)"/><path class="b" d="M242,23.786v-7.8h-5.555v7.8H229.8V2.2h6.645V9.583H242V2.2h6.68V23.786Z" transform="translate(-149.011 -1.567)"/></g></g></svg>