<?xml version="1.0" encoding="utf-8"?>
<!-- Generator: Adobe Illustrator 21.0.0, SVG Export Plug-In . SVG Version: 6.00 Build 0)  -->
<svg version="1.1" id="Layer_1" xmlns="http://www.w3.org/2000/svg" xmlns:xlink="http://www.w3.org/1999/xlink" x="0px" y="0px"
	 width="1619.8px" height="623.6px" viewBox="0 0 1619.8 623.6" style="enable-background:new 0 0 1619.8 623.6;"
	 xml:space="preserve">
<style type="text/css">
	.st0{fill:#E500E5;}
	.st1{fill:#00E500;}
	.st2{fill:#00E5E5;}
	.st3{fill:#5F5F5F;}
	.st4{fill:#E5E500;}
</style>
<g>
	<g>
		<g>
			<g>
				<path class="st0" d="M351.2,539.3c-13.9,0-27.1-1.9-37.9-3.5c-3.1-0.5-6-0.9-8.7-1.2c-12.5-1.6-25.7-5.9-37.4-9.6
					c-8.4-2.7-16.2-5.2-22.4-6.3l-1.9-0.3c-21.7-3.6-40.9-26.5-51.2-38.8l-2-2.4c-3.6-4.2-10.1-13.9-17.7-25.2
					c-6.5-9.7-13.3-19.7-18.9-27.4c-5.5-7.6-10.4-15.3-14.3-21.5c-1.4-2.3-2.7-4.3-3.8-5.9c-3.8-5.8-8-16.2-10.9-23.9
					c-7.7-20.5-14.1-54.1-12.1-63.1c1.3-6,4-19.3,5.8-30.3c1-6.2,3.4-18.2,8.1-28.9c1.5-3.3,2.9-6.9,4.3-10.4
					c3.5-8.8,6.9-17.1,10.7-22c1.4-1.8,2.9-3.7,4.4-5.7l4.6-6c12.1-15.8,23.5-30.3,30-34.1c2.1-1.5,5.3-4.1,9-7.1
					c10.5-8.6,24.9-20.4,40.9-27.2c7-3,15.3-6.2,24.5-8.3c16.4-3.6,24.7-6.4,31.3-8.7c5.9-2,10.6-3.6,18.3-4.8
					c3.7-0.5,8.4-1.3,13.8-2.1c16.4-2.7,38.8-6.4,53.8-5.6c9.1,0.5,19.1,0.3,28.7,0.2c11.4-0.2,21.2-0.3,27.7,0.6
					c3.4,0.5,7.8,1.5,13.1,3c8.5,2.4,20.5,6.8,31,10.6l2.4,0.9c19,6.9,50.5,31.5,59.3,40.4c8.6,8.8,22.9,27.6,29.5,40.7
					c2.5,4.9,5.9,11.6,9.2,18.5c3.5,7.1,7.8,16.9,12,26.4c2,4.6,4,9.1,5.8,13.1c3.4,7.5,5.2,12.5,7.7,20.9l0.3,0.9
					c5.6,19.4,13.3,46,9.3,60.1c-1.9,6.4-2.8,15-3.8,24.2c-1.8,16.1-3.6,32.8-10.8,42.2c-2.8,3.6-6.2,9.5-9.8,15.7
					c-3.9,6.7-7.9,13.7-11.7,18.6c-7.8,10.2-20.1,25-36.2,35.8c-4.5,3-8.9,6.3-13.5,9.7c-12.7,9.4-27,20.1-46.5,26.9
					c-19.5,6.8-48.3,13.6-66.8,15.8c-3.6,0.4-7.1,0.5-10.9,0.5c-6,0-12.2,0.1-19.2,1.8C369.3,538.5,360.2,539.3,351.2,539.3z
					 M367.5,116c-14.1,0-33.7,3.2-48.4,5.6c-5.5,0.9-10.3,1.7-13.9,2.2c-7,1.1-11.2,2.5-17,4.5c-6.8,2.3-15.3,5.2-32.1,8.9
					c-8.7,1.9-16.6,5.1-23.3,7.9c-15.1,6.4-29,17.8-39.2,26.1c-3.8,3.1-7.1,5.8-9.7,7.6c-6,3.6-20.4,22.4-28.2,32.4l-4.6,6
					c-1.5,2-3,3.9-4.4,5.7c-3.2,4-6.5,12.3-9.7,20.2c-1.4,3.6-2.9,7.2-4.4,10.6c-4.4,10-6.7,21.3-7.6,27.1
					c-1.8,11.1-4.5,24.7-5.9,30.7c-1.4,6.5,3.7,37.5,11.8,59.1c3.9,10.4,7.5,18.4,10.2,22.5c1.1,1.7,2.4,3.7,3.9,6.1
					c3.9,6.1,8.6,13.7,14,21.1c5.7,7.8,12.5,17.9,19.1,27.6c7.1,10.6,13.9,20.6,17.2,24.6l2,2.4c9,10.8,27.8,33.1,46.9,36.3l1.9,0.3
					c6.6,1.2,14.8,3.8,23.4,6.6c11.4,3.7,24.3,7.8,36.1,9.3c2.7,0.3,5.7,0.8,8.8,1.2c17.1,2.5,40.6,5.9,62.2,0.6
					c7.8-1.9,14.7-2,20.8-2c3.5,0,6.9-0.1,10.1-0.4c18.2-2.1,46.2-8.8,65.3-15.4c18.4-6.4,31.7-16.3,44.6-25.9
					c4.7-3.5,9.1-6.8,13.8-9.9c15.1-10.1,26.4-23.6,34.5-34.2c3.5-4.5,7.4-11.3,11.2-17.9c3.7-6.4,7.2-12.5,10.3-16.4
					c6-7.8,7.8-24.2,9.4-38.6c1-9.5,2-18.4,4-25.4c3.5-12.1-4.2-38.6-9.3-56.1l-0.3-0.9c-2.4-8.1-4.1-12.7-7.3-19.9l0,0
					c-1.8-4-3.8-8.5-5.8-13.1c-4.1-9.4-8.4-19.1-11.8-26.1c-3.3-6.8-6.7-13.5-9.2-18.4c-6.3-12.5-20-30.5-28.2-38.9
					c-8.2-8.3-38.9-32.2-56.6-38.7l-2.4-0.9c-10.4-3.8-22.2-8.1-30.5-10.4c-4.9-1.4-9.1-2.4-12.1-2.8c-6-0.8-16-0.7-26.6-0.5
					c-9.7,0.1-19.8,0.3-29.2-0.2C370.1,116,368.8,116,367.5,116z"/>
			</g>
			<g>
				<path class="st1" d="M367.4,520.2c-26.5,0-46.7-6.2-64.1-11.5c-8.6-2.6-16.1-4.9-23.1-6c-25.7-4.1-39.8-21-50-33.3
					c-1.7-2-3.2-3.9-4.7-5.6c-4.6-5.1-13.2-18.1-22.3-32c-10.4-15.8-24.7-37.5-29.3-40.7c-11.2-7.8-31-73-32.4-79.3
					c-2.4-11,6.6-70.7,14.8-78.9c2.1-2.1,4.9-6.5,7.9-11.1c6.1-9.4,13.6-21.1,22.6-26c2.8-1.5,6.7-4.4,11.1-7.7
					c15-11.2,37.6-28.1,68.7-32.5c24.3-3.5,31.2-6,37.2-8.3c3.8-1.4,7.4-2.7,14.4-4c7.4-1.4,45.5-8.2,61.9-7.1
					c11.1,0.7,26-1.8,36.8-3.7c6.7-1.1,12-2,15.2-2c7.7,0,23.9,6.4,41.4,13.6l2.3,0.9c11.6,4.8,59.8,34.8,83,95
					c7,18.1,25.7,92,20.5,107.4c-1.5,4.6-1.8,12-2,19.9c-0.5,14.2-1,30.2-8.6,42.4c-12.3,19.6-36.8,47-61.8,60.6
					c-6.7,3.7-10.9,7.3-15.3,11.1c-11.7,10.1-23.8,20.6-81.3,33.7C394.3,518.7,380.1,520.2,367.4,520.2z M376.3,144.4
					c-13.2,0-38.1,3.7-56.6,7c-6.3,1.1-9.4,2.3-13,3.6c-6.4,2.4-13.7,5.1-38.9,8.7c-29,4.1-50.6,20.3-64.9,30.9
					c-4.9,3.7-8.8,6.6-12.1,8.4c-7.1,3.9-14,14.6-19.6,23.2c-3.4,5.2-6.3,9.8-9,12.5c-5,5.1-14.8,60.9-12.5,71.2
					c2.9,13.2,21.9,69.4,29,74.3c5.5,3.8,16,19.5,31.5,42.9c8.9,13.6,17.4,26.4,21.5,31c1.6,1.7,3.2,3.7,5,5.8
					c9.4,11.3,22.3,26.8,44.9,30.4c7.6,1.2,15.7,3.7,24.2,6.3c24.8,7.6,55.6,17,102.7,6.3c55.5-12.7,66.8-22.4,77.7-31.9
					c4.5-3.9,9.2-8,16.7-12.1c23.6-12.9,47-38.9,58.7-57.7c6.4-10.3,6.9-25.2,7.4-38.3c0.3-8.8,0.5-16.4,2.5-22.2
					c3.8-11.4-12.6-81.6-20.4-101.8c-22-56.8-68.2-86.1-78.4-90.3l-2.3-0.9c-11-4.5-31.5-12.9-38.2-12.9c-2.5,0-7.8,0.9-13.8,1.9
					c-11.2,1.9-26.7,4.5-38.7,3.8C378.5,144.5,377.5,144.4,376.3,144.4z"/>
			</g>
			<g>
				<path class="st1" d="M344.7,489.9c-32.6,0-54.7-10.4-71.1-18.1c-2-0.9-4-1.9-5.9-2.7c-17.6-8-26.8-21.5-32.3-29.6
					c-3-4.4-9.5-15.5-16.3-27.2c-5.4-9.2-11-18.9-15.3-25.9c-7-11.5-17.6-41.6-21-53.9c-3.7-13.1-2.9-42.2-0.5-53.6
					c1.9-8.8,7.1-21.6,12.2-29.9c13.1-21.3,36.1-49.1,71.4-60.5c4.9-1.6,9.3-3.1,13.3-4.4c15.6-5.2,26-8.6,41.1-11.1
					c2.1-0.4,4.8-0.9,7.9-1.4c11.4-2.1,28.6-5.3,42.4-6.1c4.8-0.3,9.9-0.8,15-1.2c10.8-1,21.1-2,28.6-1.3
					c11.3,1.1,26.2,6.1,36.4,9.8c12.9,4.7,28,14.7,46.2,30.8c8.2,7.2,23.9,26.2,33.2,49.1c8.8,21.4,23.1,70.8,14.2,104.3
					c-0.7,2.8-1.4,5.7-2.1,8.8c-0.5,2.4-1.1,4.9-1.7,7.4c-4.3,17.5-8.5,31.4-15.2,42.4c-19.6,32.5-43.4,40.2-60.8,45.7
					c-2.1,0.7-4.1,1.3-6,2c-3.9,1.3-8.2,3.1-13.1,5.1c-20.5,8.3-48.5,19.8-95.6,21.3C348.2,489.9,346.4,489.9,344.7,489.9z
					 M408.5,172.4c-6.3,0-14.2,0.7-21.9,1.5c-5.2,0.5-10.4,1-15.3,1.3c-13.2,0.8-30,3.9-41.2,6c-3.1,0.6-5.9,1.1-8.1,1.5
					c-14.4,2.4-23.9,5.6-39.7,10.8c-4,1.3-8.4,2.8-13.4,4.4c-32.5,10.5-54,36.5-66.2,56.4c-4.5,7.4-9.3,19.2-11,26.9
					c-2.2,10.2-2.8,37.7,0.4,49c3.8,13.7,14.2,41.9,20,51.5c4.3,7,9.9,16.7,15.4,26.1c6.7,11.6,13.1,22.5,15.7,26.3
					c5.2,7.6,13.5,19.7,28.6,26.6c1.9,0.9,3.9,1.8,6,2.8c17.3,8.1,38.7,18.2,71.9,17.1c45.4-1.5,72.5-12.6,92.3-20.6
					c4.8-2,9.4-3.8,13.6-5.3c2-0.7,4-1.3,6.2-2c16.8-5.4,37.8-12.1,55.5-41.6c6-10,10-23.1,14.1-39.8c0.6-2.5,1.2-4.9,1.7-7.3
					c0.7-3.2,1.4-6.3,2.2-9.1c8.2-31.1-5.5-77.8-13.8-98.2c-8.7-21.2-23.4-39.2-30.7-45.6l0,0c-17.1-15-31.6-24.8-43.2-29
					c-9.8-3.5-23.9-8.3-34.1-9.3C412,172.4,410.3,172.4,408.5,172.4z"/>
			</g>
			<g>
				<path class="st2" d="M385.5,601.7c-0.6,0-1.2,0-1.8,0c-4.8-0.1-8.5-0.2-11.6-0.4c-6.2-0.4-12-1.1-17.7-1.7
					c-15.1-1.7-29.5-3.2-46.9-0.7c-23.9,3.4-48.4-2.1-66.3-6.2c-5.6-1.3-10.5-2.4-14.7-3.1c-6.5-1.1-13.5-3-20.8-4.9
					c-4.4-1.2-8.9-2.4-13.4-3.5c-11.7-2.8-24.3-7.3-33.5-10.6l-0.7-0.3c-18.3-6.5-47.6-33.9-57.5-46.6
					c-11.6-14.9-33.8-46.9-46.5-66.3c-3.9-5.9-7.2-12.5-10-19.8c-4.4-11.5-9.2-29.6-13.5-50.9c-5.4-26.2-7-65.9-0.7-80.8
					c2.6-6.2,5.7-14.2,8.8-22c2.7-7.1,5.5-14.1,7.9-19.9c5.3-12.7,12.2-28.5,19.1-37.9c0.6-0.9,1.1-1.6,1.5-2.2
					c2.9-4.9,6.2-11.5,9.8-18.6c6.1-12.1,13.1-25.9,19.2-34.2l1.1-1.5c8.6-11.2,25-30.8,35.9-43.8c4.2-5,7.5-8.9,8.9-10.7
					c5.6-6.7,13.2-13.2,24.1-20.5c3.9-2.6,8.4-6.1,13.2-9.8c7.5-5.8,15.3-11.7,22.4-15.8c3.7-2.1,7.2-3.9,10.4-5.3
					c4.4-1.9,10.2-4.7,17-7.9c19.4-9.2,46.1-21.9,60.8-24.4c20.3-3.4,58.9-3.1,88.4,3.4c25.1,5.5,58.2,16.7,84.2,25.8l4.6,1.6
					c11.9,4.1,34,11.8,43.2,16.4c31.8,15.8,58.2,33.7,68.9,46.7c8.8,10.7,24.4,32.4,32.2,45.3c8.8,14.7,32.2,49.2,40.1,60.4
					c1.4,2,2.6,3.8,3.6,5.4l0,0c3.1,5,4.6,9.4,6.6,15.4l0.6,1.7c2.5,7.3,14.9,44.8,14,66.3c-0.2,5.7-2.5,56.5-8.4,75.6
					c-1.8,5.7-4,13-5.7,19.3c-1.8,6.2-3.5,13.2-5,19.3c-0.6,2.3-1.1,4.5-1.6,6.5c-3,12-12,32.7-27.5,51.5
					c-22.3,27-66.8,74.4-114,88.6c-2.4,0.7-4.9,1.4-7.5,2C453.3,595.2,412.6,601.7,385.5,601.7z M326.2,594c9.9,0,19.1,1,28.7,2
					c5.6,0.6,11.4,1.2,17.5,1.7c3,0.2,6.6,0.3,11.4,0.4c26.4,0.3,68.6-6.3,122.2-19.1c2.4-0.6,4.9-1.2,7.3-1.9
					c46.3-13.9,90.3-60.7,112.3-87.4c14.2-17.2,23.7-37.5,26.8-50.1c0.5-1.9,1-4.1,1.6-6.4c1.5-6.2,3.2-13.2,5-19.5
					c1.8-6.3,4-13.6,5.8-19.4c5.7-18.6,8-69,8.2-74.7c0.9-20.9-11.3-57.8-13.8-65l-0.6-1.7c-2-6-3.4-9.9-6.3-14.6
					c-1-1.6-2.1-3.3-3.5-5.3c-7.9-11.3-31.4-45.9-40.2-60.6c-7.6-12.8-23.1-34.2-31.9-44.9c-10.4-12.7-36.4-30.2-67.7-45.7
					c-9.1-4.5-31-12.1-42.8-16.2l-4.6-1.6c-25.9-9.1-58.9-20.2-83.8-25.7c-29.1-6.4-67.1-6.8-87-3.4c-14.2,2.4-40.6,14.9-59.9,24.1
					c-6.8,3.2-12.6,6-17.1,8c-3.1,1.3-6.5,3.1-10,5.1c-6.9,4-14.6,9.9-22,15.6c-4.9,3.7-9.5,7.2-13.4,9.9
					c-10.6,7.1-18,13.4-23.3,19.8c-1.4,1.7-4.7,5.6-8.9,10.7c-10.9,13-27.3,32.6-35.8,43.7l-1.1,1.5c-5.9,8-12.8,21.6-18.9,33.7
					c-3.6,7.1-7,13.9-9.8,18.7c-0.6,0.9-1.1,1.7-1.8,2.6c-6.7,9.1-13.5,24.6-18.6,37.1c-2.4,5.7-5.1,12.8-7.8,19.8
					c-3,7.8-6.2,15.9-8.8,22.1c-6,14.3-4.4,53,0.9,78.7c4.3,21.1,9,39,13.4,50.4c2.7,7,5.9,13.5,9.7,19.1
					c12.6,19.3,35.1,51.7,46.3,66.1c10.8,13.9,39.6,39.6,55.9,45.4l0.7,0.3c9.1,3.3,21.6,7.8,33.1,10.5c4.6,1.1,9.1,2.3,13.5,3.5
					c7.3,2,14.1,3.8,20.5,4.9c4.3,0.7,9.2,1.8,14.9,3.1c17.6,4,41.7,9.5,65,6.2C313.8,594.3,320.1,594,326.2,594z"/>
			</g>
			<g>
				<path class="st1" d="M370.3,581.2c-1.2,0-2.3,0-3.3-0.1c-4.8-0.3-9.5-1.2-14.5-2.1c-11.5-2-23.4-4.2-38.1-0.3
					c-14.1,3.7-34.3-1.2-52.1-5.5c-9.8-2.4-19-4.6-24.7-4.6c-9.7,0-26.4-5.8-41.2-11c-10-3.5-19.4-6.8-23.8-7.2
					c-12.7-1.3-47.3-37.5-54-46.4c-2.3-3-6.4-9.1-11.2-16.2c-9.8-14.5-23.2-34.4-30.7-42.7c-11.9-13-19.8-41.6-25.5-62.4
					c-5.5-19.9-5.1-61,2.6-73.1c6.6-10.3,12.2-30.4,14.5-40.6l0.1-0.5c2.3-10.5,5.9-26.4,16.4-38.1c4.8-5.3,10.1-14.3,15.8-23.9
					c6-10.2,12.3-20.7,18.3-27.3l10.5-11.5c15-16.5,35.5-39.1,37.1-40.8c8.7-8.9,30.2-30.4,43-36.9l4.8-2.5
					c16.8-8.6,44.9-22.9,61.9-24c6.5-0.4,14.7-1.8,24.1-3.5c16.1-2.8,36.1-6.3,54.9-5.6c19.4,0.8,37.8,6.1,54,10.7
					c8.6,2.5,16.8,4.8,24.5,6.4c22.2,4.4,103,30.2,114,45.3c2.7,3.7,6.1,8.3,9.8,13.3c10.5,14.1,23.6,31.6,27.9,39.3
					c5.7,10.3,41,58,49.7,67.8c7.6,8.6,9.1,12.6,11.9,19.9c0.6,1.7,1.3,3.6,2.2,5.8l1.1,2.7c5.6,13.6,20.3,49.8,13.8,75
					c-1.8,7-3.6,14.9-5.5,23.3c-6.5,28.7-10.9,46.5-17,50.8c-6.7,4.8-14.7,33.1-16.1,41.7c-1.2,7.2-11.4,29.4-33.8,48.1
					c-25.1,21-68.2,48.8-106.7,58.5C447.6,572.2,390.6,581.2,370.3,581.2z M331.1,571.8c8.1,0,15.4,1.3,22.2,2.5
					c4.9,0.9,9.4,1.7,14,2c14.9,1,74-7.5,116.4-18.1c37.7-9.4,80-36.9,104.8-57.5c21.8-18.2,31.2-39.5,32.1-45.2
					c1.1-6.4,9.1-38.4,18-44.8c5.1-3.6,10.7-28.2,15.1-48c1.8-8,3.7-16.3,5.5-23.4c6.2-23.6-8.2-58.7-13.6-72l-1.1-2.7
					c-0.9-2.2-1.6-4.1-2.3-5.9c-2.6-7-3.9-10.5-11-18.4l0,0c-9.2-10.3-44.4-57.9-50.3-68.6c-4.1-7.4-17.1-24.8-27.5-38.8
					c-3.7-5-7.2-9.6-9.9-13.3c-9.3-12.8-85.8-38.3-111.1-43.4c-7.9-1.6-16.2-4-24.9-6.5c-16.7-4.8-34-9.8-52.8-10.5
					c-18.3-0.7-37.2,2.6-53.9,5.5c-9.6,1.7-17.9,3.1-24.7,3.6c-16,1-43.6,15-60,23.4l-4.9,2.5c-12.6,6.3-35.1,29.1-41.7,35.9
					c-1.5,1.6-22.9,25.1-37,40.7l-10.5,11.5c-5.7,6.3-11.8,16.6-17.7,26.6c-5.8,9.7-11.2,18.9-16.4,24.6
					c-9.6,10.7-13,25.9-15.2,35.9l-0.1,0.5c-2.3,10.5-8.2,31.3-15.1,42.2c-6.4,10-7.5,49.4-2,69.2c5.3,19.2,13.4,48.2,24.5,60.4
					c7.8,8.5,21.3,28.6,31.2,43.2c4.8,7,8.9,13.1,11.1,16.1c7.4,9.8,40.8,43.6,50.6,44.5c5,0.5,14.3,3.7,24.9,7.5
					c14.4,5,30.8,10.7,39.6,10.7c6.2,0,15.3,2.2,25.8,4.8c16.4,4,36.8,8.9,49.8,5.5C319.6,572.4,325.6,571.8,331.1,571.8z"/>
			</g>
			<g>
				<path class="st1" d="M329.1,559.4c-13.2,0-27.2-2.6-39.1-4.9c-7.5-1.4-13.9-2.6-18.9-3c-11.2-0.8-26.2-5.9-39.4-10.3
					c-8.6-2.9-16.6-5.6-22.1-6.6c-0.7-0.1-1.3-0.2-1.8-0.3c-20.7-2.9-53.3-43.4-53.6-43.8c-2.9-3.6-8.2-11.5-14.4-20.6
					c-8.5-12.6-18.1-26.8-24.9-35.1c-6-7.5-12-17.9-17.7-31c-2.8-6.4-6-15.1-9.6-25.9c-6.9-21.1-9.5-58.2-4.7-68.3
					c3.6-7.7,7.8-23.6,10.1-35.3c1.8-9.3,5-22.8,12.3-33.8c3-4.5,6.1-10.4,9.3-16.7c3.7-7.1,7.5-14.5,11.4-20
					c2.4-3.4,4.5-6.1,6.5-8.4l1.9-2.2c17.7-20.9,34.6-40.6,38.8-43.5c1.4-1.2,3.5-3.1,5.9-5.3c10.5-9.5,26.4-23.8,40.5-30.2l2.4-1.1
					c5.7-2.6,12.8-5.9,20.4-8.4c7.8-2.5,14-4.8,19.5-6.8c10.8-3.9,18.7-6.8,28.1-7.8c5.3-0.5,12.2-1.7,20.2-3
					c16.2-2.7,36.5-6.2,53.1-5.4c21.7,1,44.9,3.8,60.4,7.2c4,0.9,8.4,1.9,12.8,3l0.7,0.2c9.4,2.3,24.9,7.4,36.2,11.3
					c24.4,8.3,58.9,27.5,67.2,37.4c9.9,11.7,27.5,35.1,33.5,46.6c2.1,3.9,6.4,11.1,12.1,20.2c4.3,6.8,9.2,14.8,13.7,22.3
					c4.9,8.1,9.5,15.5,12.5,20.2c5.9,9.3,7.4,13.2,10.9,23.4l1.3,3.7c5.6,16.3,16.1,46.6,10.9,65.6c-2,7.5-3.7,17-5.3,26.3
					c-3.3,19.1-6.4,37.1-13.3,44c-4.4,4.4-9.8,17.4-13.8,27c-1.9,4.6-3.6,8.5-4.9,11.1c-3.9,7.5-15,26.6-35,41.8l-0.5,0.4
					c-19.6,15-49.3,37.6-82.9,47.2c-29.5,8.4-74.4,16.7-92.4,17c-4.4,0.1-8.7-0.4-13.3-0.9c-8.6-0.9-17.5-1.9-28,0.8
					C341,558.9,335.1,559.4,329.1,559.4z M358.7,87.5c-15.2,0-32.9,3-47.4,5.4c-8.1,1.4-15.1,2.5-20.6,3.1c-8.7,1-15.9,3.6-26.7,7.5
					c-5.6,2-11.9,4.3-19.7,6.9c-7.3,2.4-14,5.4-19.8,8.1l-2.4,1.1c-13.3,6.1-28.7,20-39,29.2c-2.5,2.2-4.6,4.2-6.3,5.6
					c-4.4,3-28.7,31.8-37.9,42.6l-1.9,2.2c-1.9,2.2-3.9,4.8-6.2,8c-3.7,5.2-7.4,12.3-11,19.3c-3.3,6.4-6.4,12.4-9.6,17.2
					c-6.7,10.1-9.8,22.9-11.4,31.7c-2.3,11.7-6.5,28.2-10.5,36.7c-3.8,8.1-1.8,43.1,5,63.9c3.5,10.6,6.6,19.1,9.4,25.3
					c5.6,12.6,11.2,22.6,16.9,29.7c6.9,8.5,16.6,22.9,25.2,35.5c6.1,9,11.4,16.8,14.1,20.2c8.1,10.1,34.6,39.5,49.8,41.6
					c0.6,0.1,1.3,0.2,2.1,0.3c5.9,1.1,14.2,3.9,22.9,6.8c12.9,4.3,27.5,9.3,37.9,10c5.3,0.4,11.9,1.6,19.5,3.1
					c16.8,3.2,37.8,7.1,53.8,3c11.6-2.9,21.5-1.9,30.1-1c4.4,0.5,8.5,0.9,12.5,0.8c17.6-0.3,61.7-8.5,90.8-16.8
					c32.5-9.3,61.6-31.5,80.9-46.2l0.5-0.4c19-14.5,29.7-32.7,33.3-39.8c1.2-2.3,2.8-6.2,4.7-10.6c4.4-10.5,9.9-23.6,15.1-28.9
					c5.5-5.6,8.8-24.3,11.6-40.8c1.6-9.4,3.3-19.1,5.4-26.9l0,0c4.7-17.3-5.4-46.4-10.8-62.1l-1.3-3.7c-3.1-9.1-4.4-12.9-10.2-22.1
					c-3-4.7-7.6-12.2-12.6-20.4c-4.6-7.5-9.4-15.5-13.7-22.2c-5.8-9.3-10.2-16.6-12.3-20.6c-5.9-11.1-23.2-34-32.8-45.5
					c-6.8-8.2-40-27.2-64.6-35.6c-11.2-3.8-26.5-8.9-35.7-11.1l-0.7-0.2c-4.5-1.1-8.8-2.1-12.7-3c-15.2-3.4-37.9-6.1-59.4-7.1
					C361.7,87.6,360.2,87.5,358.7,87.5z"/>
			</g>
			<g>
				<path class="st0" d="M394.1,623c-2.3,0-4.6,0-6.8-0.1c-4.7-0.2-9.1-0.4-13-0.7c-6.3-0.4-12.2-1-17.9-1.5
					c-18.8-1.7-35.1-3.1-55.3-1.1c-33.2,3.4-60.1-3-79.7-7.6c-2.4-0.6-4.6-1.1-6.7-1.6c-5-1.1-9.8-2.4-14.7-3.7
					c-7-1.9-14.3-3.8-21.6-5.1c-13.2-2.4-27.2-7.7-36.6-11.7c-21.4-9.2-49.3-32.6-61.9-48.6c-16.1-20.4-38-50.8-50.7-72.8
					c-4.3-7.3-7.7-14.7-10.2-22c-4.3-12.5-9.2-32.9-13.3-56c-5.5-30.9-8.1-71.2-2.3-88.3C7.3,290,14.5,272.7,21.6,258
					c7.7-16,16.1-31.4,21.3-39.2c0.8-1.1,1.3-2,1.6-2.6c1.7-3.5,3.9-8.2,6.2-13.4c6.7-14.6,15.1-32.8,22.1-43.2
					c0.4-0.6,0.8-1.1,1.1-1.7c9.4-13.4,27.7-36,38.6-49.6c3.2-3.9,5.7-7.1,7.2-9c7-8.7,15.6-15.7,28.8-23.3
					c5-2.9,11.5-7.8,18.4-12.9c7.8-5.9,16-11.9,23.6-16.5c4.5-2.7,8.6-4.8,12.2-6.2c5.9-2.4,14.9-6.7,25.3-11.6
					C250.3,18.2,278.1,5,293.4,1.8c22-4.6,65.4-0.1,96.8,10.1l7.2,2.3c23.6,7.6,56,18,83.3,29c13.9,5.5,24.9,10.9,33.8,16.2l2,1.2
					c31.3,18.9,74.1,44.9,87.2,60c7.7,8.9,21.2,27.9,30.6,43.4c5,8.2,11.7,18.9,18.2,29.3c7.3,11.7,14.3,22.9,18.4,29.7
					c1.2,2,2.3,3.7,3.1,5.3c2.9,5.2,4.5,10.1,6.5,16.5c6.1,19.4,11.8,49,14,63c2.4,15.2,1.5,57.7-1.7,79.9c-1,6.9-2.4,14.5-3.9,21.1
					l-0.6,2.6c-1.8,7.8-3.8,16.5-5.9,24.6c-4.9,18.2-14.4,39-25.4,55.5c-9.7,14.6-61.4,88.4-122.5,107.9c-2.9,0.9-5.7,1.7-8.4,2.3
					C481.6,612.3,431.5,623,394.1,623z M321.1,615.1c12,0,23.2,1,35.6,2.1c5.7,0.5,11.6,1,17.8,1.5c3.9,0.3,8.2,0.5,12.9,0.7
					c37.6,1.5,90.9-9.9,138-21.1c2.6-0.6,5.4-1.4,8.2-2.3c59.9-19.1,111-92,120.6-106.4c10.8-16.3,20.2-36.6,25-54.5
					c2.1-8,4.1-16.7,5.9-24.4l0.6-2.6c1.5-6.4,2.8-14,3.8-20.8c3.1-21.9,4-63.9,1.7-78.8l0,0c-2.2-14-7.9-43.3-13.9-62.5
					c-1.9-6.1-3.5-10.9-6.2-15.8c-0.9-1.6-1.9-3.3-3.1-5.2c-4.1-6.7-11.1-18-18.4-29.6c-6.5-10.4-13.2-21.1-18.2-29.3
					c-9.3-15.3-22.6-34.1-30.2-42.9c-12.8-14.7-55.3-40.4-86.4-59.2l-2-1.2c-8.7-5.3-19.6-10.5-33.3-16
					c-27.2-10.9-59.5-21.3-83-28.9l-7.3-2.3c-30.9-10-73.5-14.5-95-10c-14.9,3.1-42.5,16.3-64.6,26.8c-10.5,5-19.5,9.3-25.5,11.7
					c-3.4,1.4-7.4,3.4-11.7,6c-7.5,4.5-15.5,10.5-23.3,16.3c-7,5.2-13.6,10.1-18.8,13.1c-12.8,7.4-21.1,14.1-27.8,22.4
					c-1.5,1.9-4.1,5.1-7.2,9c-10.9,13.5-29.1,36.1-38.4,49.4c-0.4,0.5-0.7,1-1.1,1.6c-6.9,10.2-15.1,28.3-21.8,42.8
					c-2.4,5.2-4.5,9.9-6.3,13.5c-0.4,0.7-0.9,1.7-1.8,2.9c-5.1,7.7-13.4,22.9-21,38.8c-7,14.6-14.1,31.7-18.2,43.7
					c-5.6,16.5-3,56.1,2.5,86.5c4,22.6,9,43.4,13.2,55.5c2.4,7,5.7,14.2,9.9,21.3c12.6,21.8,34.4,52,50.4,72.4
					c12.3,15.7,39.6,38.6,60.5,47.5c9.2,4,22.9,9.2,35.8,11.5c7.5,1.3,14.8,3.3,21.9,5.2c4.8,1.3,9.7,2.6,14.6,3.7
					c2.1,0.5,4.4,1,6.8,1.6c19.3,4.6,45.9,10.8,78.5,7.5C307.9,615.4,314.6,615.1,321.1,615.1z"/>
			</g>
			<g>
				<path class="st3" d="M384.4,396.2c-1.1,0-2.1,0-3.2-0.1c-32.5-1.4-46.3-19.1-52.2-33.6c-5.7-14.1-5.2-28.1-5.1-33.4l0-1.1
					c0-10.1,13.8-37,48.1-43.4l0.4-0.1c1.6-0.2,40-4.9,54.3,25.1c4.3,9,8.6,30.4,4.5,49.7C426.1,383.2,409.6,396.2,384.4,396.2z
					 M374.4,298.7c-28,5.3-35.9,26.3-36.1,29.4l0,1.4c-0.1,4.5-0.5,16.3,4.1,27.6c6.3,15.7,19.3,23.8,39.5,24.7
					c20,0.9,31.5-7.5,35.3-25.4c3.5-16.4-0.5-34.5-3.4-40.6C404.2,295.9,376.7,298.5,374.4,298.7z"/>
			</g>
			<g>
				<path class="st3" d="M384.4,374.2c-0.6,0-1.1,0-1.7,0c-13.7-0.6-23.7-7.1-28.2-18.4c-3-7.5-2.8-15-2.7-17.5
					c0-7,7.9-21.5,26-24.8l1.1-0.2l1.1,0.1c5.4,0.6,23.5,3.6,28.1,14.4c2.1,4.9,4.4,15.8,2.3,25.9
					C407.6,366.8,398.2,374.2,384.4,374.2z M366.1,338.3l0,0.4c-0.1,1.9-0.2,7,1.7,11.7c1.5,3.8,4.8,9,15.6,9.4
					c7.7,0.3,11.6-2.4,13.1-9.2c1.4-6.5-0.3-14.5-1.5-17.3c-1.1-1.9-8.7-4.6-15.5-5.6C370.1,329.9,366.6,336.5,366.1,338.3z"/>
			</g>
			<g>
				<path class="st4" d="M346.7,465.5c-6.3,0-12.8-0.5-19.2-1.5c-44.9-7.2-67.6-33.2-74-47.4c-0.7-1.6-1.9-4-3.5-7.3
					c-8.3-16.8-25.6-51.7-32.3-83.9c-3.4-17-3.3-31.6,0.5-43.4c12.8-39.9,55.1-70.2,110.5-79.1c2.2-0.4,5-0.9,8.3-1.5
					c16.6-3.1,44.4-8.3,66.9-5.3c40.7,5.5,63,23.9,68.8,29.4c2,1.9,20.1,19.4,32.2,48.1c13.7,32.5,14.7,66,3.1,99.4l0,0
					c-23.5,66.9-52.1,70-69.1,71.9c-2.8,0.3-5.3,0.6-7.3,1.1c-3.1,0.8-7.4,2.3-12.5,4.1C401.8,456.2,375.4,465.5,346.7,465.5z
					 M388.8,207.1c-17.8,0-37.2,3.6-49.8,6c-3.4,0.6-6.3,1.2-8.6,1.5c-39.9,6.4-87.3,28.4-101,71c-3.2,9.9-3.2,22.4-0.2,37.4
					c6.3,30.7,23.2,64.7,31.3,81c1.7,3.5,3,6.1,3.7,7.7c5.4,12,25.2,34.1,65,40.5c32.9,5.3,65.9-6.4,85.6-13.3
					c5.3-1.9,9.9-3.5,13.5-4.4c2.8-0.7,5.8-1.1,9-1.4c16.1-1.8,38.2-4.2,59.2-64c10.6-30.5,9.7-61.1-2.8-90.8
					c-11.1-26.4-27.5-42.3-29.4-44c-5.2-4.9-25.1-21.3-62.2-26.3C397.9,207.4,393.4,207.1,388.8,207.1z"/>
			</g>
			<g>
				<path class="st2" d="M364,444.2c-3.9,0-7.8-0.2-11.9-0.7c-50.2-5.8-66.8-36.2-70.6-45.3c-5.6-13.3-19.1-46.9-23.6-71.3
					c-2.1-11.2-0.9-23.2,3.2-33.8c12.1-30.5,45.4-53.7,86.8-60.7c5.7-0.9,35.4-5.2,59.4-0.6c23,4.4,42.8,14.4,53.2,26.5l0,0
					c3.4,4,13.7,16.1,20.6,33.7c9.1,23,10.2,46.2,3.2,68.8c-12.2,39.6-28.5,46.4-39.2,50.9c-2.4,1-4.5,1.9-5.9,3
					C428.5,423.2,401.7,444.2,364,444.2z M382.1,241.6c-15.2,0-28.6,2-32.2,2.5c-37.4,6.3-67.1,26.7-77.7,53.3
					c-3.4,8.5-4.3,18.2-2.6,27.2c4.3,23.3,17.4,55.9,22.8,68.9c6.7,15.8,26.2,34.1,61,38.1c39.1,4.5,67.7-17.8,78.4-26.2
					c2.6-2,5.5-3.3,8.6-4.6c9.2-3.9,21.8-9.2,32.4-43.5c6.2-20,5.2-40.5-2.9-60.9c-6.2-15.7-15.2-26.4-18.6-30.4
					c-6.7-7.8-22.3-17.9-46.3-22.5C397.7,242.1,389.7,241.6,382.1,241.6z"/>
			</g>
			<g>
				<path class="st2" d="M375.4,422.5c-2.5,0-5.1-0.1-7.7-0.3c-43.2-3.7-58.4-29.5-62.9-40.5c-6-14.7-12.1-39.1-14.3-53.4
					c-1.2-7.5,0.5-16.8,4.7-25.6c10.7-22.7,35.3-39.5,65.7-44.8c4.3-0.7,26.3-1.6,45.2,3.1c18.4,4.6,32.9,12.9,39.7,22.9l0.1,0.2
					c0.1,0.2,10.6,17,12.1,22.7c3.2,12.1,7.1,27.1,2.8,44.5c-5.4,21.7-13.7,29-19.2,33.9c-1.6,1.4-2.9,2.6-3.7,3.7
					C427,404.6,407.6,422.5,375.4,422.5z M372,270.4c-4.6,0-8,0.2-9.1,0.4c-25.7,4.5-47.2,18.8-55.9,37.4c-3,6.4-4.4,13.1-3.6,18
					c2.1,13.6,8.1,37.1,13.5,50.4c4.5,10.8,17.2,29.4,51.9,32.4c30.6,2.6,48.4-13.6,58.1-27.6c1.7-2.5,3.8-4.3,5.9-6.1
					c4.8-4.2,10.7-9.5,15.2-27.2c3.5-14.1,0.2-26.7-2.7-37.8c-0.8-2.8-7.8-15-10.4-19c-4.9-7.1-17.1-13.8-31.9-17.5
					C392.2,271.1,380.1,270.4,372,270.4z"/>
			</g>
		</g>
	</g>
	<g>
		<path class="st3" d="M986.2,109.2h-14.9l-24.5-90.2h-0.3l-24.8,90.2h-14.9L879.3,1.8h14.6l21.1,89.3h0.3l24.1-89.3h15.5l23.8,89.3
			h0.3l21.8-89.3h14.3L986.2,109.2z"/>
		<path class="st3" d="M1088.1,84.5c-3.5,17.3-15.6,26.5-33.3,26.5c-24.8,0-36.5-17.3-37.3-40.9c0-23.5,15.3-40.5,36.5-40.5
			c27.5,0,35.9,25.7,35.2,44.5h-58.2c-0.5,13.5,7.2,25.6,24.2,25.6c10.7,0,17.9-5,20.2-15.2H1088.1z M1075.8,62.8
			c-0.8-12.2-9.6-22-22.4-22c-13.2,0-21.5,9.9-22.3,22H1075.8z"/>
		<path class="st3" d="M1105.2,1.8h12.8v107.4h-12.8V1.8z"/>
		<path class="st3" d="M1192.2,56.4c-2-9.8-8.6-15.5-19.2-15.5c-18.5,0-24.2,14.7-24.2,30.4c0,14.4,6.5,28.4,22.7,28.4
			c12.5,0,19.7-7.1,21.4-19h13.1c-2.8,19.1-14.6,30.2-34.3,30.2c-23.8,0-36.4-16.4-36.4-39.7s12-41.7,36.7-41.7
			c17.7,0,31.6,8.3,33.5,26.8H1192.2z"/>
		<path class="st3" d="M1254.4,29.6c24.7,0,37.8,17.9,37.8,40.8c0,22.7-13.1,40.6-37.8,40.6c-24.7,0-37.7-17.9-37.7-40.6
			C1216.7,47.5,1229.8,29.6,1254.4,29.6z M1254.4,99.7c13.4,0,24.2-10.5,24.2-29.3c0-18.8-10.8-29.5-24.2-29.5
			c-13.4,0-24.2,10.7-24.2,29.5C1230.2,89.2,1241,99.7,1254.4,99.7z"/>
		<path class="st3" d="M1307.3,31.4h12v11.4h0.3c5.9-8.9,14.1-13.2,25.1-13.2c9.6,0,18.2,3.6,21.4,13.2c5.3-8.4,14.3-13.2,24.4-13.2
			c15.5,0,25.9,6.5,25.9,22.6v57h-12.8v-51c0-9.6-2.6-17.3-15-17.3c-12.5,0-20.3,7.8-20.3,19.9v48.4h-12.8v-51
			c0-10.1-3.2-17.3-14.6-17.3c-15,0-20.8,13.8-20.8,19.9v48.4h-12.8V31.4z"/>
		<path class="st3" d="M1502,84.5c-3.5,17.3-15.6,26.5-33.2,26.5c-24.8,0-36.5-17.3-37.3-40.9c0-23.5,15.4-40.5,36.6-40.5
			c27.5,0,35.9,25.7,35.2,44.5H1445c-0.5,13.5,7.2,25.6,24.2,25.6c10.7,0,17.9-5,20.1-15.2H1502z M1489.6,62.8
			c-0.8-12.2-9.6-22-22.4-22c-13.2,0-21.5,9.9-22.3,22H1489.6z"/>
		<path class="st3" d="M904.8,186.2h15.5v11.3h-15.5v48.3c0,6,1.7,6.9,9.6,6.9h5.9V264h-9.8c-13.2,0-18.5-2.7-18.5-17v-49.5h-13.2
			v-11.3h13.2v-23.3h12.8V186.2z"/>
		<path class="st3" d="M965.3,184.4c24.7,0,37.8,17.9,37.8,40.8c0,22.7-13.1,40.6-37.8,40.6c-24.7,0-37.8-17.9-37.8-40.6
			C927.6,202.3,940.7,184.4,965.3,184.4z M965.3,254.5c13.4,0,24.2-10.5,24.2-29.3c0-18.8-10.8-29.5-24.2-29.5
			c-13.4,0-24.2,10.7-24.2,29.5C941.1,244,952,254.5,965.3,254.5z"/>
		<path class="st3" d="M1080.7,186.2h15.5v11.3h-15.5v48.3c0,6,1.6,6.9,9.6,6.9h5.9V264h-9.8c-13.2,0-18.5-2.7-18.5-17v-49.5h-13.2
			v-11.3h13.2v-23.3h12.8V186.2z"/>
		<path class="st3" d="M1110.9,156.6h12.8v41.1h0.3c4.1-9.5,15.3-13.2,24.5-13.2c20.5,0,26.8,11.7,26.8,28.4V264h-12.8v-52.6
			c0-9.6-6-15.6-15.8-15.6c-15.5,0-23,10.4-23,24.4V264h-12.8V156.6z"/>
		<path class="st3" d="M1260.8,239.3c-3.5,17.3-15.6,26.5-33.3,26.5c-24.8,0-36.5-17.3-37.3-40.9c0-23.5,15.3-40.5,36.6-40.5
			c27.5,0,35.9,25.7,35.2,44.5h-58.2c-0.5,13.5,7.2,25.6,24.2,25.6c10.7,0,17.9-5,20.2-15.2H1260.8z M1248.4,217.7
			c-0.8-12.2-9.6-22-22.4-22c-13.2,0-21.5,9.9-22.3,22H1248.4z"/>
		<path class="st3" d="M1322,156.6h15.2l56.5,87.1h0.3v-87.1h13.5V264h-15.6l-56.1-86.2h-0.3V264H1322V156.6z"/>
		<path class="st3" d="M1495.1,239.3c-3.5,17.3-15.6,26.5-33.2,26.5c-24.8,0-36.6-17.3-37.3-40.9c0-23.5,15.3-40.5,36.6-40.5
			c27.5,0,35.9,25.7,35.2,44.5H1438c-0.4,13.5,7.2,25.6,24.2,25.6c10.7,0,17.9-5,20.2-15.2H1495.1z M1482.7,217.7
			c-0.7-12.2-9.6-22-22.4-22c-13.2,0-21.5,9.9-22.3,22H1482.7z"/>
		<path class="st3" d="M1528,223.1l-27.1-36.8h16.4l18.7,27.2l19.4-27.2h15.3L1544,222l30.1,42h-16.4l-21.7-32.2l-21.7,32.2h-15.5
			L1528,223.1z"/>
		<path class="st3" d="M1604.3,186.2h15.5v11.3h-15.5v48.3c0,6,1.7,6.9,9.6,6.9h5.9V264h-9.8c-13.2,0-18.5-2.7-18.5-17v-49.5h-13.2
			v-11.3h13.2v-23.3h12.8V186.2z"/>
		<path class="st3" d="M912.7,418.9h-12.8v-76.4h-27.7v-10.2c14.6,0,27.8-3.8,30.7-20h9.8V418.9z"/>
		<path class="st3" d="M1000.8,325.3h-43L952,356l0.3,0.3c4.7-5.2,12.6-7.7,19.9-7.7c18.9,0,34.4,12,34.4,36.5
			c0,18.1-12.5,35.5-37.3,35.5c-18.5,0-33.5-11.3-34-30.5h12.8c0.7,11,9.6,19.2,22.4,19.2c12.2,0,22.6-8.4,22.6-25.3
			c0-14-9.6-24.2-24.1-24.2c-8.3,0-14.9,4.1-19.9,10.1l-11-0.6l9.9-55.4h52.6V325.3z"/>
		<path class="st3" d="M1056.2,312.2c33.4,0,35.5,30.8,35.5,54.3c0,23.5-2.1,54.1-35.5,54.1c-33.4,0-35.5-30.7-35.5-54.1
			C1020.7,343,1022.9,312.2,1056.2,312.2z M1056.2,409.4c21.8,0,22-27.1,22-43c0-15.8-0.2-42.9-22-42.9c-21.8,0-22,27.1-22,42.9
			C1034.3,382.3,1034.4,409.4,1056.2,409.4z"/>
		<path class="st3" d="M1185.5,374.9v43.9h-14.3v-43.9l-41.5-63.5h17l32.2,51.1l31.4-51.1h16.3L1185.5,374.9z"/>
		<path class="st3" d="M1285.8,394.2c-3.5,17.3-15.7,26.5-33.2,26.5c-24.8,0-36.6-17.3-37.3-40.9c0-23.5,15.3-40.5,36.6-40.5
			c27.5,0,35.9,25.7,35.2,44.5h-58.2c-0.4,13.5,7.2,25.6,24.2,25.6c10.7,0,17.9-5,20.1-15.2H1285.8z M1273.5,372.5
			c-0.7-12.2-9.6-22-22.4-22c-13.2,0-21.5,9.9-22.3,22H1273.5z"/>
		<path class="st3" d="M1371.5,418.6c-2.2,1.4-5.4,2.1-9.2,2.1c-6.6,0-10.8-3.6-10.8-12c-7.1,8.4-16.6,12-27.4,12
			c-14.1,0-25.7-6.2-25.7-21.8c0-17.6,13.1-21.5,26.3-23.9c14-2.9,26.2-1.7,26.2-11.4c0-11.3-9.3-12.9-17.3-12.9
			c-10.8,0-18.8,3.3-19.4,14.7h-12.8c0.8-19.3,15.5-26,32.9-26c14,0,29.2,3.2,29.2,21.4v40c0,6,0,8.7,4.1,8.7c1.2,0,2.6-0.3,3.9-0.7
			V418.6z M1350.7,378.7c-9.9,7.4-38.8,0.2-38.8,19.3c0,8.4,7.2,11.4,15.1,11.4c16.8,0,23.8-10.4,23.8-17.6V378.7z"/>
		<path class="st3" d="M1385.3,341.1h12v16.4h0.3c6.2-12.6,14.7-18.7,28.6-18.2v13.5c-20.6,0-28.1,11.6-28.1,31.4v34.6h-12.8V341.1z
			"/>
		<path class="st3" d="M1442.9,394.3c0.4,11.4,10.5,15,20.9,15c8,0,18.8-1.8,18.8-11.6c0-20-50.8-6.5-50.8-36.4
			c0-15.7,15.4-22.1,29-22.1c17.4,0,30.7,5.4,31.9,24.4h-12.8c-0.8-9.9-9.8-13.1-18-13.1c-7.7,0-16.5,2.1-16.5,9.9
			c0,9,13.5,10.8,25.4,13.5c12.8,2.9,25.4,7.2,25.4,22.1c0,18.6-17.3,24.5-33.1,24.5c-17.5,0-32.2-7.1-32.9-26.3H1442.9z"/>
	</g>
</g>
</svg>
